<svg xmlns="http://www.w3.org/2000/svg" xmlns:xlink="http://www.w3.org/1999/xlink" width="377" zoomAndPan="magnify" viewBox="0 0 283.5 283.500005" height="377" preserveAspectRatio="xMidYMid meet" version="1.0"><defs><clipPath id="708cb9e864"><path d="M 0 0 L 283 0 L 283 282 L 0 282 Z M 0 0 " clip-rule="nonzero"/></clipPath><clipPath id="581f4bdbcf"><path d="M 83 55 L 205 55 L 205 283 L 83 283 Z M 83 55 " clip-rule="nonzero"/></clipPath></defs><g clip-path="url(#708cb9e864)"><path fill="#1877f2" d="M 283.5 141.75 C 283.5 63.464844 220.035156 0 141.75 0 C 63.464844 0 0 63.464844 0 141.75 C 0 212.5 51.835938 271.144531 119.601562 281.777344 L 119.601562 182.722656 L 83.609375 182.722656 L 83.609375 141.75 L 119.601562 141.75 L 119.601562 110.519531 C 119.601562 74.996094 140.765625 55.371094 173.144531 55.371094 C 188.652344 55.371094 204.871094 58.140625 204.871094 58.140625 L 204.871094 93.023438 L 187 93.023438 C 169.390625 93.023438 163.898438 103.949219 163.898438 115.160156 L 163.898438 141.75 L 203.210938 141.75 L 196.925781 182.722656 L 163.898438 182.722656 L 163.898438 281.777344 C 231.664062 271.144531 283.5 212.5 283.5 141.75 " fill-opacity="1" fill-rule="nonzero"/></g><g clip-path="url(#581f4bdbcf)"><path fill="#ffffff" d="M 196.925781 182.722656 L 203.210938 141.75 L 163.898438 141.75 L 163.898438 115.160156 C 163.898438 103.949219 169.390625 93.023438 187 93.023438 L 204.871094 93.023438 L 204.871094 58.140625 C 204.871094 58.140625 188.652344 55.371094 173.144531 55.371094 C 140.765625 55.371094 119.601562 74.996094 119.601562 110.519531 L 119.601562 141.75 L 83.609375 141.75 L 83.609375 182.722656 L 119.601562 182.722656 L 119.601562 281.777344 C 126.816406 282.910156 134.214844 283.5 141.75 283.5 C 149.285156 283.5 156.683594 282.910156 163.898438 281.777344 L 163.898438 182.722656 L 196.925781 182.722656 " fill-opacity="1" fill-rule="nonzero"/></g></svg>