<svg xmlns="http://www.w3.org/2000/svg" xmlns:xlink="http://www.w3.org/1999/xlink" width="500" zoomAndPan="magnify" viewBox="0 0 375 374.999989" height="500" preserveAspectRatio="xMidYMid meet" version="1.0"><defs><clipPath id="970da01f52"><path d="M 134 142 L 241 142 L 241 258.453125 L 134 258.453125 Z M 134 142 " clip-rule="nonzero"/></clipPath><clipPath id="21a7fafcb6"><path d="M 112.574219 116.609375 L 262.675781 116.609375 L 262.675781 192 L 112.574219 192 Z M 112.574219 116.609375 " clip-rule="nonzero"/></clipPath></defs><g clip-path="url(#970da01f52)"><path fill="#000000" d="M 240.320312 188.710938 Z M 240.320312 188.710938 L 187.640625 142.117188 L 134.929688 188.730469 L 134.929688 255.335938 C 134.929688 257.054688 136.320312 258.433594 138.042969 258.433594 L 170.984375 258.433594 L 170.984375 229.230469 C 170.984375 227.511719 172.367188 226.121094 174.089844 226.121094 L 201.15625 226.121094 C 202.878906 226.121094 204.261719 227.511719 204.261719 229.230469 L 204.261719 258.433594 L 237.214844 258.433594 C 238.9375 258.433594 240.316406 257.054688 240.316406 255.335938 L 240.316406 188.707031 Z M 134.929688 188.730469 Z M 134.929688 188.730469 " fill-opacity="1" fill-rule="nonzero"/></g><g clip-path="url(#21a7fafcb6)"><path fill="#000000" d="M 187.335938 116.621094 L 112.574219 182.726562 L 120.449219 191.597656 L 187.640625 132.179688 L 254.816406 191.597656 L 262.675781 182.726562 L 187.933594 116.621094 L 187.640625 116.957031 Z M 187.335938 116.621094 " fill-opacity="1" fill-rule="nonzero"/></g><path fill="#000000" d="M 134.929688 126.136719 L 153.882812 126.136719 L 153.714844 137.347656 L 134.929688 154.292969 Z M 134.929688 126.136719 " fill-opacity="1" fill-rule="nonzero"/></svg>