<svg xmlns="http://www.w3.org/2000/svg" xmlns:xlink="http://www.w3.org/1999/xlink" width="140" zoomAndPan="magnify" viewBox="0 0 104.88 52.499999" height="70" preserveAspectRatio="xMidYMid meet" version="1.0"><defs><g/><clipPath id="d2d11300c5"><path d="M 78.441406 25.699219 L 99.246094 25.699219 L 99.246094 46.5 L 78.441406 46.5 Z M 78.441406 25.699219 " clip-rule="nonzero"/></clipPath></defs><g clip-path="url(#d2d11300c5)"><path fill="#040606" d="M 88.84375 45.9375 C 83.417969 45.9375 79.007812 41.523438 79.007812 36.101562 C 79.007812 32.519531 80.933594 29.375 83.804688 27.65625 C 83.914062 27.734375 84.050781 27.789062 84.226562 27.789062 C 84.226562 27.789062 84.414062 27.789062 83.210938 28.730469 C 82.003906 29.675781 82.117188 30.980469 82.492188 30.160156 C 82.871094 29.335938 83.210938 29.636719 82.605469 30.804688 C 82.003906 31.976562 82.921875 31.597656 83.234375 32.3125 C 83.546875 33.027344 83.660156 32.164062 83.8125 33.519531 C 83.8125 33.519531 84.191406 33.972656 84.867188 33.746094 C 85.546875 33.519531 84.753906 34.347656 84.039062 35.027344 C 83.320312 35.707031 83.546875 35.929688 83.925781 36.34375 C 84.300781 36.761719 84.453125 37.097656 84.113281 37.550781 C 83.773438 38.003906 84.640625 38.152344 84.867188 38.417969 C 85.09375 38.679688 85.054688 39.546875 84.527344 39.925781 C 84 40.300781 84.792969 41.132812 84.679688 42.300781 C 84.566406 43.46875 84.59375 43.957031 85.125 44.03125 C 85.660156 44.109375 85.054688 43.015625 85.28125 42.527344 C 85.507812 42.035156 85.773438 42.867188 86.300781 41.546875 C 86.300781 41.546875 87.242188 41.773438 87.65625 40.339844 C 87.65625 40.339844 88.484375 40.226562 88.636719 39.773438 C 88.785156 39.324219 88.597656 39.019531 89.804688 38.042969 C 91.007812 37.0625 88.972656 36.308594 87.882812 36.269531 C 87.882812 36.269531 87.480469 36.433594 88.183594 35.175781 C 88.488281 34.628906 87.582031 34.761719 87.355469 34.273438 C 87.128906 33.78125 86.601562 33.21875 85.546875 33.332031 C 84.492188 33.445312 84.1875 33.820312 84.152344 33.179688 C 84.113281 32.539062 84.601562 32.238281 84.074219 32.164062 C 83.546875 32.085938 83.8125 32.050781 84.378906 31.519531 C 84.378906 31.519531 84.039062 31.292969 83.699219 31.636719 C 83.359375 31.976562 82.757812 31.445312 83.472656 30.695312 C 84.191406 29.9375 85.320312 29.375 85.242188 30.804688 C 85.167969 32.238281 85.695312 30.160156 85.695312 30.160156 C 85.695312 30.160156 86.488281 29.148438 87.46875 29.074219 C 88.445312 28.996094 87.84375 28.960938 87.84375 28.621094 C 87.84375 28.28125 88.296875 29.183594 88.84375 28.960938 C 89.390625 28.730469 88.257812 28.65625 88.371094 28.28125 C 88.484375 27.902344 89.125 28.015625 89.390625 28.507812 C 89.652344 28.996094 89.953125 28.242188 89.277344 27.453125 C 88.597656 26.660156 88.710938 27.152344 88.070312 27.488281 C 87.429688 27.828125 87.695312 28.015625 87.582031 27.453125 C 87.46875 26.886719 87.429688 27.488281 87.128906 27.1875 C 86.824219 26.886719 87.667969 27.027344 88.109375 27.074219 C 88.550781 27.121094 88.410156 26.8125 88.410156 26.8125 L 88.84375 26.625 C 88.84375 26.625 89.125 27.039062 89.464844 26.960938 C 89.804688 26.886719 89.238281 26.359375 89.578125 26.433594 C 89.917969 26.507812 90.367188 26.207031 90.40625 26.660156 C 90.445312 27.113281 90.140625 27.714844 91.386719 27.039062 C 91.636719 26.898438 91.804688 26.8125 91.921875 26.757812 C 92.003906 26.785156 92.089844 26.816406 92.171875 26.847656 C 92.179688 26.9375 92.207031 27.054688 92.367188 27.152344 C 92.855469 27.453125 92.707031 27.1875 93.347656 27.566406 C 93.988281 27.941406 93.570312 28.355469 94.0625 28.433594 C 94.550781 28.507812 95.003906 29.183594 94.628906 29.222656 C 94.25 29.261719 94.210938 28.808594 93.648438 28.730469 C 93.082031 28.65625 93.875 28.921875 94.25 29.261719 C 94.628906 29.597656 94.628906 30 94.25 30.160156 C 93.875 30.316406 94.152344 31.183594 94.765625 31.070312 C 95.382812 30.957031 95.15625 30.316406 95.492188 30.46875 C 95.832031 30.617188 95.71875 30.992188 96.285156 31.222656 C 96.851562 31.445312 96.210938 31.746094 96.890625 31.785156 C 97.566406 31.824219 97.90625 32.085938 97.300781 32.351562 C 96.699219 32.617188 97.003906 32.839844 96.472656 32.199219 C 95.945312 31.558594 96 32.171875 95.945312 31.558594 C 95.894531 30.945312 95.042969 31.519531 94.589844 31.597656 C 94.136719 31.671875 94.515625 32.125 94.097656 32.199219 C 93.683594 32.273438 93.496094 32.164062 93.609375 33.140625 C 93.722656 34.121094 93.460938 34.347656 93.007812 34.347656 C 92.554688 34.347656 93.382812 34.875 93.609375 35.554688 C 93.835938 36.230469 93.875 36.648438 94.855469 36.382812 C 95.832031 36.121094 95.53125 36.121094 95.644531 36.648438 C 95.757812 37.175781 96.171875 36.34375 96.246094 36.871094 C 96.324219 37.402344 95.304688 37.515625 95.871094 37.851562 C 96.4375 38.191406 96.023438 38.984375 95.757812 39.171875 C 95.492188 39.359375 95.683594 40.039062 95.117188 40.339844 C 94.550781 40.640625 95.382812 41.167969 95.042969 41.507812 C 94.703125 41.847656 93.796875 42.261719 94.136719 43.089844 C 94.476562 43.917969 94.476562 43.429688 95.195312 42.828125 C 95.90625 42.222656 96.511719 41.207031 96.851562 41.246094 C 96.972656 41.257812 97.03125 41.351562 97.101562 41.433594 C 95.347656 44.140625 92.300781 45.9375 88.84375 45.9375 Z M 88.84375 25.699219 C 83.109375 25.699219 78.441406 30.363281 78.441406 36.101562 C 78.441406 41.835938 83.109375 46.5 88.84375 46.5 C 94.578125 46.5 99.242188 41.835938 99.242188 36.101562 C 99.242188 30.363281 94.578125 25.699219 88.84375 25.699219 " fill-opacity="1" fill-rule="nonzero"/></g><path fill="#d71e1f" d="M 5.511719 24.734375 L 73.5 24.734375 L 73.5 48.855469 L 5.511719 48.855469 L 5.511719 24.734375 " fill-opacity="1" fill-rule="nonzero"/><g fill="#ffffff" fill-opacity="1"><g transform="translate(9.788863, 41.593525)"><g><path d="M 12.109375 -11.515625 L 12.109375 0 L 9.421875 0 L 4.34375 -6.140625 L 4.34375 0 L 1.15625 0 L 1.15625 -11.515625 L 3.828125 -11.515625 L 8.921875 -5.375 L 8.921875 -11.515625 Z M 12.109375 -11.515625 "/></g></g></g><g fill="#ffffff" fill-opacity="1"><g transform="translate(24.532548, 41.593525)"><g><path d="M 10.390625 -2.515625 L 10.390625 0 L 1.15625 0 L 1.15625 -11.515625 L 10.1875 -11.515625 L 10.1875 -9 L 4.375 -9 L 4.375 -7.0625 L 9.5 -7.0625 L 9.5 -4.625 L 4.375 -4.625 L 4.375 -2.515625 Z M 10.390625 -2.515625 "/></g></g></g><g fill="#ffffff" fill-opacity="1"><g transform="translate(37.071255, 41.593525)"><g><path d="M 19.21875 -11.515625 L 15.484375 0 L 12 0 L 9.796875 -7.015625 L 7.484375 0 L 4 0 L 0.265625 -11.515625 L 3.625 -11.515625 L 5.9375 -4.15625 L 8.375 -11.515625 L 11.375 -11.515625 L 13.6875 -4.09375 L 16.109375 -11.515625 Z M 19.21875 -11.515625 "/></g></g></g><g fill="#ffffff" fill-opacity="1"><g transform="translate(58.034923, 41.593525)"><g><path d="M 5.203125 0.234375 C 4.265625 0.234375 3.359375 0.117188 2.484375 -0.109375 C 1.609375 -0.335938 0.894531 -0.644531 0.34375 -1.03125 L 1.421875 -3.4375 C 1.929688 -3.09375 2.523438 -2.816406 3.203125 -2.609375 C 3.890625 -2.398438 4.5625 -2.296875 5.21875 -2.296875 C 6.46875 -2.296875 7.09375 -2.609375 7.09375 -3.234375 C 7.09375 -3.566406 6.910156 -3.8125 6.546875 -3.96875 C 6.191406 -4.132812 5.625 -4.300781 4.84375 -4.46875 C 3.96875 -4.65625 3.238281 -4.851562 2.65625 -5.0625 C 2.082031 -5.28125 1.585938 -5.625 1.171875 -6.09375 C 0.753906 -6.570312 0.546875 -7.210938 0.546875 -8.015625 C 0.546875 -8.710938 0.734375 -9.34375 1.109375 -9.90625 C 1.492188 -10.476562 2.066406 -10.925781 2.828125 -11.25 C 3.597656 -11.582031 4.535156 -11.75 5.640625 -11.75 C 6.398438 -11.75 7.144531 -11.660156 7.875 -11.484375 C 8.613281 -11.316406 9.265625 -11.070312 9.828125 -10.75 L 8.8125 -8.328125 C 7.71875 -8.921875 6.65625 -9.21875 5.625 -9.21875 C 4.976562 -9.21875 4.503906 -9.117188 4.203125 -8.921875 C 3.910156 -8.734375 3.765625 -8.484375 3.765625 -8.171875 C 3.765625 -7.867188 3.941406 -7.640625 4.296875 -7.484375 C 4.648438 -7.328125 5.210938 -7.171875 5.984375 -7.015625 C 6.867188 -6.828125 7.597656 -6.625 8.171875 -6.40625 C 8.742188 -6.195312 9.238281 -5.859375 9.65625 -5.390625 C 10.082031 -4.921875 10.296875 -4.285156 10.296875 -3.484375 C 10.296875 -2.796875 10.101562 -2.171875 9.71875 -1.609375 C 9.332031 -1.046875 8.753906 -0.597656 7.984375 -0.265625 C 7.222656 0.0664062 6.296875 0.234375 5.203125 0.234375 Z M 5.203125 0.234375 "/></g></g></g><g fill="#000000" fill-opacity="1"><g transform="translate(4.467958, 19.811072)"><g><path d="M 13.609375 -12.21875 L 8.375 0 L 4.96875 0 L -0.25 -12.21875 L 3.484375 -12.21875 L 6.8125 -4.265625 L 10.1875 -12.21875 Z M 13.609375 -12.21875 "/></g></g></g><g fill="#000000" fill-opacity="1"><g transform="translate(19.401331, 19.811072)"><g><path d="M 1.21875 -12.21875 L 4.671875 -12.21875 L 4.671875 0 L 1.21875 0 Z M 1.21875 -12.21875 "/></g></g></g><g fill="#000000" fill-opacity="1"><g transform="translate(26.885461, 19.811072)"><g><path d="M 11.03125 -2.671875 L 11.03125 0 L 1.21875 0 L 1.21875 -12.21875 L 10.796875 -12.21875 L 10.796875 -9.546875 L 4.640625 -9.546875 L 4.640625 -7.484375 L 10.078125 -7.484375 L 10.078125 -4.90625 L 4.640625 -4.90625 L 4.640625 -2.671875 Z M 11.03125 -2.671875 "/></g></g></g><g fill="#000000" fill-opacity="1"><g transform="translate(40.178958, 19.811072)"><g><path d="M 3.828125 -9.484375 L 0.0625 -9.484375 L 0.0625 -12.21875 L 11.015625 -12.21875 L 11.015625 -9.484375 L 7.28125 -9.484375 L 7.28125 0 L 3.828125 0 Z M 3.828125 -9.484375 "/></g></g></g><g fill="#000000" fill-opacity="1"><g transform="translate(52.826964, 19.811072)"><g><path d="M 12.84375 -12.21875 L 12.84375 0 L 10 0 L 4.609375 -6.515625 L 4.609375 0 L 1.21875 0 L 1.21875 -12.21875 L 4.0625 -12.21875 L 9.453125 -5.703125 L 9.453125 -12.21875 Z M 12.84375 -12.21875 "/></g></g></g><g fill="#000000" fill-opacity="1"><g transform="translate(68.458158, 19.811072)"><g><path d="M 9.40625 -2.375 L 4.234375 -2.375 L 3.28125 0 L -0.25 0 L 5.15625 -12.21875 L 8.546875 -12.21875 L 13.96875 0 L 10.375 0 Z M 8.390625 -4.921875 L 6.828125 -8.828125 L 5.25 -4.921875 Z M 8.390625 -4.921875 "/></g></g></g><g fill="#000000" fill-opacity="1"><g transform="translate(83.740434, 19.811072)"><g><path d="M 12.25 0 L 12.21875 -6.46875 L 9.078125 -1.203125 L 7.546875 -1.203125 L 4.421875 -6.296875 L 4.421875 0 L 1.21875 0 L 1.21875 -12.21875 L 4.0625 -12.21875 L 8.359375 -5.171875 L 12.546875 -12.21875 L 15.390625 -12.21875 L 15.421875 0 Z M 12.25 0 "/></g></g></g></svg>