<svg xmlns="http://www.w3.org/2000/svg" xmlns:xlink="http://www.w3.org/1999/xlink" width="377" zoomAndPan="magnify" viewBox="0 0 283.5 283.500005" height="377" preserveAspectRatio="xMidYMid meet" version="1.0"><defs><clipPath id="f8d2a7729c"><path d="M 0 0 L 283 0 L 283 283 L 0 283 Z M 0 0 " clip-rule="nonzero"/></clipPath><clipPath id="13b2d3848b"><path d="M 0 141.746094 C 0 220.035156 63.460938 283.5 141.75 283.5 C 220.039062 283.5 283.503906 220.035156 283.503906 141.746094 C 283.503906 63.460938 220.039062 -0.00390625 141.75 -0.00390625 C 63.460938 -0.00390625 0 63.460938 0 141.746094 " clip-rule="nonzero"/></clipPath><clipPath id="2074a3db27"><path d="M 0 141.746094 C 0 220.035156 63.460938 283.5 141.75 283.5 C 220.039062 283.5 283.503906 220.035156 283.503906 141.746094 C 283.503906 63.460938 220.039062 -0.00390625 141.75 -0.00390625 C 63.460938 -0.00390625 0 63.460938 0 141.746094 " clip-rule="nonzero"/></clipPath><linearGradient x1="133.903" gradientTransform="matrix(1.201287, 0, 0, -1.201287, -19.105242, 300.315056)" y1="14.413019" x2="133.903" gradientUnits="userSpaceOnUse" y2="249.994478" id="1e29773210"><stop stop-opacity="1" stop-color="rgb(11.418152%, 57.618713%, 82.411194%)" offset="0"/><stop stop-opacity="1" stop-color="rgb(11.582947%, 57.795715%, 82.513428%)" offset="0.03125"/><stop stop-opacity="1" stop-color="rgb(11.912537%, 58.151245%, 82.719421%)" offset="0.0625"/><stop stop-opacity="1" stop-color="rgb(12.243652%, 58.508301%, 82.925415%)" offset="0.09375"/><stop stop-opacity="1" stop-color="rgb(12.574768%, 58.863831%, 83.131409%)" offset="0.125"/><stop stop-opacity="1" stop-color="rgb(12.905884%, 59.21936%, 83.335876%)" offset="0.15625"/><stop stop-opacity="1" stop-color="rgb(13.235474%, 59.57489%, 83.54187%)" offset="0.1875"/><stop stop-opacity="1" stop-color="rgb(13.566589%, 59.93042%, 83.747864%)" offset="0.21875"/><stop stop-opacity="1" stop-color="rgb(13.897705%, 60.28595%, 83.953857%)" offset="0.25"/><stop stop-opacity="1" stop-color="rgb(14.227295%, 60.641479%, 84.159851%)" offset="0.28125"/><stop stop-opacity="1" stop-color="rgb(14.558411%, 60.997009%, 84.365845%)" offset="0.3125"/><stop stop-opacity="1" stop-color="rgb(14.889526%, 61.352539%, 84.571838%)" offset="0.34375"/><stop stop-opacity="1" stop-color="rgb(15.220642%, 61.708069%, 84.777832%)" offset="0.375"/><stop stop-opacity="1" stop-color="rgb(15.550232%, 62.063599%, 84.983826%)" offset="0.40625"/><stop stop-opacity="1" stop-color="rgb(15.881348%, 62.419128%, 85.189819%)" offset="0.4375"/><stop stop-opacity="1" stop-color="rgb(16.212463%, 62.774658%, 85.395813%)" offset="0.46875"/><stop stop-opacity="1" stop-color="rgb(16.542053%, 63.130188%, 85.601807%)" offset="0.5"/><stop stop-opacity="1" stop-color="rgb(16.873169%, 63.485718%, 85.8078%)" offset="0.53125"/><stop stop-opacity="1" stop-color="rgb(17.204285%, 63.841248%, 86.013794%)" offset="0.5625"/><stop stop-opacity="1" stop-color="rgb(17.533875%, 64.196777%, 86.218262%)" offset="0.59375"/><stop stop-opacity="1" stop-color="rgb(17.86499%, 64.553833%, 86.424255%)" offset="0.625"/><stop stop-opacity="1" stop-color="rgb(18.196106%, 64.909363%, 86.630249%)" offset="0.65625"/><stop stop-opacity="1" stop-color="rgb(18.527222%, 65.264893%, 86.836243%)" offset="0.6875"/><stop stop-opacity="1" stop-color="rgb(18.856812%, 65.620422%, 87.042236%)" offset="0.71875"/><stop stop-opacity="1" stop-color="rgb(19.187927%, 65.975952%, 87.24823%)" offset="0.75"/><stop stop-opacity="1" stop-color="rgb(19.519043%, 66.331482%, 87.454224%)" offset="0.78125"/><stop stop-opacity="1" stop-color="rgb(19.848633%, 66.687012%, 87.660217%)" offset="0.8125"/><stop stop-opacity="1" stop-color="rgb(20.179749%, 67.042542%, 87.866211%)" offset="0.84375"/><stop stop-opacity="1" stop-color="rgb(20.510864%, 67.398071%, 88.072205%)" offset="0.875"/><stop stop-opacity="1" stop-color="rgb(20.840454%, 67.753601%, 88.278198%)" offset="0.90625"/><stop stop-opacity="1" stop-color="rgb(21.17157%, 68.109131%, 88.484192%)" offset="0.9375"/><stop stop-opacity="1" stop-color="rgb(21.502686%, 68.464661%, 88.690186%)" offset="0.96875"/><stop stop-opacity="1" stop-color="rgb(21.833801%, 68.82019%, 88.896179%)" offset="1"/></linearGradient></defs><g clip-path="url(#f8d2a7729c)"><g clip-path="url(#13b2d3848b)"><g clip-path="url(#2074a3db27)"><path fill="url(#1e29773210)" d="M 0 283 L 0 0 L 283 0 L 283 283 Z M 0 283 " fill-rule="nonzero"/></g></g></g><path fill="#c8daea" d="M 95.953125 152.109375 L 112.769531 198.65625 C 112.769531 198.65625 114.871094 203.011719 117.125 203.011719 C 119.375 203.011719 152.863281 168.171875 152.863281 168.171875 L 190.101562 96.246094 L 96.550781 140.09375 Z M 95.953125 152.109375 " fill-opacity="1" fill-rule="nonzero"/><path fill="#a9c6d8" d="M 118.25 164.046875 L 115.019531 198.355469 C 115.019531 198.355469 113.667969 208.867188 124.179688 198.355469 C 134.691406 187.847656 144.753906 179.738281 144.753906 179.738281 " fill-opacity="1" fill-rule="nonzero"/><path fill="#ffffff" d="M 96.253906 153.769531 L 61.664062 142.5 C 61.664062 142.5 57.535156 140.824219 58.859375 137.019531 C 59.132812 136.234375 59.6875 135.566406 61.335938 134.414062 C 69.003906 129.074219 203.214844 80.832031 203.214844 80.832031 C 203.214844 80.832031 207.003906 79.558594 209.246094 80.40625 C 210.269531 80.792969 210.921875 81.230469 211.472656 82.832031 C 211.671875 83.414062 211.789062 84.652344 211.773438 85.886719 C 211.761719 86.773438 211.652344 87.597656 211.574219 88.886719 C 210.757812 102.078125 186.296875 200.507812 186.296875 200.507812 C 186.296875 200.507812 184.835938 206.269531 179.589844 206.464844 C 177.679688 206.539062 175.359375 206.148438 172.582031 203.761719 C 162.292969 194.910156 126.726562 171.007812 118.871094 165.753906 C 118.425781 165.457031 118.300781 165.074219 118.226562 164.695312 C 118.113281 164.144531 118.707031 163.453125 118.707031 163.453125 C 118.707031 163.453125 180.632812 108.40625 182.28125 102.628906 C 182.410156 102.183594 181.929688 101.960938 181.28125 102.15625 C 177.167969 103.667969 105.863281 148.691406 97.996094 153.664062 C 97.535156 153.957031 96.246094 153.769531 96.246094 153.769531 " fill-opacity="1" fill-rule="nonzero"/></svg>